# xmcd CD database file
#
# Track frame offsets:
#	150
#	19455
#	33974
#	48826
#	63055
#	80358
#	97783
#	115418
#	130384
#	144456
#	160215
#
# Disc length: 2337 seconds
#
# Revision: 0
# Processed by: cddbd v1.5.2PL0 Copyright (c) Steve Scherf et al.
# Submitted via: cdripper 1,0,33,916
#
DISCID=87091f0b
DTITLE=Tina Rauch - Why haven't I heared from you
DYEAR=2003
DGENRE=Country
TTITLE0=whenever you come
TTITLE1=mama he's crazy
TTITLE2=why haven't i heared from you
TTITLE3=the greatest man
TTITLE4=till you love me
TTITLE5=take it like a man
TTITLE6=a fairy tale comes true
TTITLE7=turn it loose
TTITLE8=crying in the rain
TTITLE9=you better think twice
TTITLE10=standing kneedeep in the river
EXTD=YEAR: 2003
EXTT0=
EXTT1=
EXTT2=
EXTT3=
EXTT4=
EXTT5=
EXTT6=
EXTT7=
EXTT8=
EXTT9=
EXTT10=
PLAYORDER=
